<svg width="1048" height="808" viewBox="0 0 1048 808" fill="none" xmlns="http://www.w3.org/2000/svg">
<g filter="url(#filter0_d)">
<rect x="4" width="1040" height="800" fill="#F9F9F9"/>
</g>
<circle cx="371" cy="312" r="16.1" stroke="#D73E3E" stroke-width="7.8"/>
<circle cx="481" cy="280" r="16.1" stroke="#D73E3E" stroke-width="7.8"/>
<circle cx="646" cy="301" r="16.1" stroke="#D73E3E" stroke-width="7.8"/>
<path d="M365.1 400C365.1 408.892 357.892 416.1 349 416.1C340.108 416.1 332.9 408.892 332.9 400C332.9 391.108 340.108 383.9 349 383.9C357.892 383.9 365.1 391.108 365.1 400Z" stroke="#D73E3E" stroke-width="7.8"/>
<circle cx="556" cy="413" r="16.1" stroke="#D73E3E" stroke-width="7.8"/>
<circle cx="591" cy="335" r="16.1" stroke="#D73E3E" stroke-width="7.8"/>
<path d="M480.6 427C480.6 435.892 473.392 443.1 464.5 443.1C455.608 443.1 448.4 435.892 448.4 427C448.4 418.108 455.608 410.9 464.5 410.9C473.392 410.9 480.6 418.108 480.6 427Z" stroke="#D73E3E" stroke-width="7.8"/>
<circle cx="411" cy="370" r="16.1" stroke="#D73E3E" stroke-width="7.8"/>
<path d="M410.6 438C410.6 446.892 403.392 454.1 394.5 454.1C385.608 454.1 378.4 446.892 378.4 438C378.4 429.108 385.608 421.9 394.5 421.9C403.392 421.9 410.6 429.108 410.6 438Z" stroke="#D73E3E" stroke-width="7.8"/>
<circle cx="689" cy="375" r="16.1" stroke="#D73E3E" stroke-width="7.8"/>
<circle cx="637" cy="425" r="16.1" stroke="#D73E3E" stroke-width="7.8"/>
<circle cx="421" cy="515" r="16.1" stroke="#D73E3E" stroke-width="7.8"/>
<circle cx="490" cy="359" r="16.1" stroke="#D73E3E" stroke-width="7.8"/>
<circle cx="571" cy="275" r="16.1" stroke="#D73E3E" stroke-width="7.8"/>
<path d="M489 343.5L483.5 295.5" stroke="#D73E3E" stroke-width="7.8"/>
<path d="M576.5 327.5L494.5 289" stroke="#D73E3E" stroke-width="7.8"/>
<path d="M506.5 356L574 339.5" stroke="#D73E3E" stroke-width="7.8"/>
<path d="M479.5 416.5L577 347M501 371L542 401" stroke="#D73E3E" stroke-width="7.8"/>
<path d="M452.5 416L432.25 396.25L419.5 383.5" stroke="#D73E3E" stroke-width="7.8"/>
<path d="M606.5 327L632.5 312.5" stroke="#D73E3E" stroke-width="7.8"/>
<path d="M480.5 424.5L538 417" stroke="#D73E3E" stroke-width="7.8"/>
<path d="M362 410L381.5 426" stroke="#D73E3E" stroke-width="7.8"/>
<path d="M408 387L400.5 422.5" stroke="#D73E3E" stroke-width="7.8"/>
<path d="M656 315.5L681 361" stroke="#D73E3E" stroke-width="7.8"/>
<path d="M651.5 413.5L679 389.5" stroke="#D73E3E" stroke-width="7.8"/>
<path d="M620 422L571.5 415.5" stroke="#D73E3E" stroke-width="7.8"/>
<path d="M627 410L599 351.5" stroke="#D73E3E" stroke-width="7.8"/>
<path d="M672 369.5L607.5 340.5" stroke="#D73E3E" stroke-width="7.8"/>
<path d="M401 454L414 499" stroke="#D73E3E" stroke-width="7.8"/>
<path d="M430 501L458.5 443" stroke="#D73E3E" stroke-width="7.8"/>
<path d="M446 430L411 435.5" stroke="#D73E3E" stroke-width="7.8"/>
<path d="M385.5 319.5L473 352.5" stroke="#D73E3E" stroke-width="7.8"/>
<path d="M366.5 327.5L355 383" stroke="#D73E3E" stroke-width="7.8"/>
<path d="M630 295L588 280.5" stroke="#D73E3E" stroke-width="7.8"/>
<path d="M472 293.5L421.5 357" stroke="#D73E3E" stroke-width="7.8"/>
<path d="M466.5 284.5L385.5 305.5" stroke="#D73E3E" stroke-width="7.8"/>
<path d="M498 278.5L553.5 276" stroke="#D73E3E" stroke-width="7.8"/>
<defs>
<filter id="filter0_d" x="0" y="0" width="1048" height="808" filterUnits="userSpaceOnUse" color-interpolation-filters="sRGB">
<feFlood flood-opacity="0" result="BackgroundImageFix"/>
<feColorMatrix in="SourceAlpha" type="matrix" values="0 0 0 0 0 0 0 0 0 0 0 0 0 0 0 0 0 0 127 0"/>
<feOffset dy="4"/>
<feGaussianBlur stdDeviation="2"/>
<feColorMatrix type="matrix" values="0 0 0 0 0 0 0 0 0 0 0 0 0 0 0 0 0 0 0.25 0"/>
<feBlend mode="normal" in2="BackgroundImageFix" result="effect1_dropShadow"/>
<feBlend mode="normal" in="SourceGraphic" in2="effect1_dropShadow" result="shape"/>
</filter>
</defs>
</svg>
